PathFileType	3	(X/Y/Z)	D:\minhoCalibration\240510\subject2_KPNP\preferred\preferred10.trc
DataRate	CameraRate	NumFrames	NumMarkers	Units	OrigDataRate	OrigDataStartFrame	OrigNumFrames
200.0	200.0	15	10	mm	200.0	408	172	
Frame#	Time	Left_Ankle_Outer1			Left_Ankle_Inner1			Left_Knee_Outer1			Left_Knee_Inner1			Left_Wrist1			Right_Wrist1			Right_Knee_Inner1			Right_Knee_Outer1			Right_Ankle_Inner1			Right_Ankle_Outer1			
		X1	Y1	Z1	X2	Y2	Z2	X3	Y3	Z3	X4	Y4	Z4	X5	Y5	Z5	X6	Y6	Z6	X7	Y7	Z7	X8	Y8	Z8	X9	Y9	Z9	X10	Y10	Z10	
408	2.03	-645.70941	121.529	-678.37793	-664.49579	121.86938	-625.94379	-478.47552	532.79211	-642.40814	-528.9505	515.44824	-562.74298	-513.66833	985.14056	-716.84711	-722.62897	1121.2546	-475.70905	-525.93793	809.11206	-126.07494	-597.00177	870.72284	-100.12122	-790.41693	475.0145	-78.074005	-848.57983	533.79761	-24.492746
409	2.035	-645.42651	120.469	-679.28326	-664.42285	121.59256	-626.77203	-479.06711	532.43317	-642.78754	-529.76044	514.8736	-563.42816	-512.16028	985.63788	-715.90515	-724.45282	1119.118	-476.15729	-533.79114	801.25269	-127.07697	-606.362	861.47528	-101.47523	-795.81757	464.52441	-95.885132	-857.28271	521.1745	-42.383156
410	2.04	-645.37061	119.70289	-680.66614	-664.90887	120.16863	-628.54749	-479.771	531.97766	-643.00677	-530.50745	514.34589	-563.99609	-510.74808	986.08911	-714.9574	-726.25079	1116.9911	-476.53857	-541.83716	793.21313	-128.54823	-615.89667	852.01453	-103.33549	-802.3028	453.79013	-112.42385	-865.63165	508.89594	-59.669796
411	2.045	-645.23853	118.85586	-681.87415	-665.11914	119.3547	-629.93103	-480.13318	531.55579	-643.27094	-531.3468	513.73364	-564.58893	-509.30225	986.61017	-714.02942	-728.02893	1114.809	-476.8685	-550.09906	784.96497	-130.10527	-625.62677	842.15936	-105.96252	-809.38281	442.98923	-127.84023	-873.44952	497.8157	-75.773407
412	2.05	-644.95233	117.94608	-683.07019	-664.96246	119.01973	-631.05585	-480.67273	530.88159	-643.42719	-532.27905	513.08435	-565.06409	-507.93744	987.06183	-712.96533	-729.90564	1112.6207	-477.19058	-558.75311	776.45905	-132.17068	-635.38062	832.52466	-108.62335	-814.10016	432.62418	-145.47958	-881.38367	484.87518	-94.686523
413	2.055	-644.7085	117.28733	-684.35669	-665.1615	117.55341	-633.13525	-481.27939	530.24744	-643.39459	-533.21008	512.3678	-565.44464	-506.57892	987.4762	-711.92883	-731.77472	1110.1208	-477.57239	-567.4895	767.71332	-134.5804	-645.11017	822.96246	-111.59621	-817.362	423.08554	-164.40045	-888.73907	474.03442	-110.35276
414	2.06	-644.42059	116.50893	-685.60303	-665.22894	117.51543	-633.81592	-481.51523	529.8078	-643.43958	-534.26917	511.59561	-565.86639	-505.24139	987.91656	-710.64532	-733.65442	1107.3629	-478.08417	-576.49579	758.73553	-137.26109	-654.71063	813.1994	-115.34379	-823.33215	412.59357	-179.6902	-895.37524	462.50217	-127.80186
415	2.065	-644.11469	115.88523	-686.84332	-665.29761	116.23817	-635.19745	-481.98038	529.0553	-643.37189	-535.61133	510.91479	-566.40497	-503.6713	988.4585	-709.50873	-735.66217	1104.6346	-478.5535	-585.5957	749.54089	-140.38496	-664.35968	803.03839	-119.69638	-830.53949	402.11353	-194.12773	-901.68073	449.91812	-147.81918
416	2.07	-643.84265	115.22432	-687.96625	-665.09729	116.14137	-636.00287	-482.17465	528.55841	-643.23901	-537.0625	510.297	-566.82324	-502.22589	988.92236	-708.01556	-737.72858	1101.6643	-479.21637	-594.85406	740.10114	-143.98022	-673.92328	793.43707	-123.97095	-834.90021	392.10458	-210.72577	-908.23383	438.61682	-165.16791
417	2.075	-643.53217	114.6149	-689.02228	-665.37207	115.08731	-637.61206	-482.50998	527.93884	-643.02814	-538.54938	509.68069	-567.2442	-500.76401	989.41779	-706.41595	-739.87299	1098.6831	-479.96179	-604.10583	730.56549	-148.0963	-683.53998	783.37177	-129.03423	-839.93317	382.59543	-226.97871	-914.05127	427.32034	-183.09682
418	2.08	-643.24817	114.06952	-690.09113	-664.85059	114.70773	-638.74969	-482.69077	527.51215	-642.75909	-540.04095	509.05078	-567.68256	-499.28473	989.9278	-704.63025	-742.10327	1095.6453	-480.78171	-613.41895	720.94012	-152.58464	-693.12927	773.58331	-134.18092	-842.31622	373.26627	-244.62288	-919.46436	417.68143	-198.89441
419	2.085	-642.94641	113.6359	-691.07086	-664.76001	114.13241	-639.98389	-482.94662	527.02307	-642.43091	-541.50317	508.51266	-568.08435	-497.74774	990.4812	-702.71729	-744.42749	1092.5851	-481.71924	-622.7533	711.36072	-157.5354	-702.71558	763.73804	-139.74532	-846.39862	364.07523	-260.46912	-924.81744	406.00497	-218.46114
420	2.09	-642.70984	113.13214	-691.94476	-665.99194	113.98121	-639.60297	-483.31659	526.53809	-641.95264	-542.99457	508.15088	-568.47723	-496.34131	991.01544	-700.60077	-746.85974	1089.6156	-482.79901	-632.18317	701.42847	-162.97318	-712.17902	753.84094	-145.71629	-852.1452	354.71729	-275.14609	-929.70911	396.55331	-234.55331
421	2.095	-642.48053	112.69212	-692.78577	-665.31018	113.11835	-641.79541	-483.57727	526.2652	-641.51324	-544.43787	507.81638	-568.79163	-494.87958	991.52753	-698.36432	-749.32318	1086.6771	-483.88919	-641.58429	691.85083	-168.86356	-721.56927	743.95886	-152.06879	-854.5769	345.84216	-291.42139	-934.41907	386.19955	-252.50163
422	2.1	-642.26617	112.28595	-693.59467	-664.76489	113.10107	-643.42706	-483.85553	525.98169	-641.08337	-545.76422	507.58075	-569.00494	-493.56537	992.30878	-695.91296	-751.95435	1083.8794	-485.08267	-650.77313	682.25964	-175.33804	-731.19391	734.46576	-158.06093	-856.62109	337.15842	-308.15671	-938.64801	376.50656	-269.21759
